<svg width="343" height="41" viewBox="0 0 343 41" fill="none" xmlns="http://www.w3.org/2000/svg">
<g clip-path="url(#clip0_1_2)">
<path d="M29.0694 39.5928C26.3099 30.9988 23.6404 22.6853 20.9709 14.3717L20.3712 14.3272C17.6902 22.6799 15.0091 31.0325 12.2614 39.5928L29.0694 39.5928ZM16.7069 1.45393H0C2.75157 9.9924 5.41422 18.255 8.07688 26.5175L8.62895 26.5177L16.7069 1.45393Z" fill="#CC0000"/>
<path d="M287.077 18.4136C287.077 24.8024 286.968 31.1939 287.132 37.5785C287.195 40.0264 286.411 40.7064 284.024 40.6672C277.477 40.5598 277.476 40.6575 277.476 34.1224C277.476 23.7062 277.516 13.2897 277.44 2.87411C277.426 0.972741 277.968 0.498661 279.925 0.202171C285.897 -0.702749 289.584 1.41111 292.262 6.92898C294.93 12.4281 298.608 17.4377 302.202 23.2424C302.343 21.9661 302.465 21.3667 302.466 20.767C302.481 14.7674 302.529 8.76685 302.443 2.76838C302.417 0.989851 302.851 0.241381 304.797 0.263641C312.795 0.355181 320.796 0.277641 328.795 0.343641C329.594 0.506579 330.359 0.808912 331.053 1.23681C330.423 1.72781 329.709 2.1013 328.946 2.33941C319.011 3.36528 312.161 10.7723 312.086 20.7306C312.043 26.48 311.99 32.232 312.122 37.9787C312.171 40.1235 311.316 40.4129 309.388 40.7028C303.63 41.5689 300.016 39.6067 297.393 34.2311C294.67 28.6522 290.948 23.561 287.663 18.2565L287.077 18.4136ZM304.061 27.8673L303.27 28.0858C302.646 27.4025 302.066 26.681 301.532 25.9254C297.001 18.6472 292.524 11.3352 287.959 4.07818C287.494 3.25355 286.728 2.64064 285.822 2.36757C283.717 2.21908 281.606 2.19201 279.499 2.28649C279.435 3.28269 279.347 4.01649 279.346 4.75049C279.337 15.1577 279.417 25.566 279.283 35.9715C279.252 38.4183 280.33 38.5592 282.268 38.6183C284.434 38.6843 285.144 38.069 285.096 35.8232C284.95 28.9992 285.015 22.1697 285.084 15.3432C285.239 14.5192 285.529 13.7265 285.943 12.997C286.586 13.4321 287.166 13.9538 287.667 14.5475C291.782 21.1038 296.072 27.5673 299.818 34.3311C301.705 37.7386 303.912 39.0534 307.697 38.6385C309.526 38.438 310.113 38.0004 310.084 36.1559C309.999 30.7466 310.006 25.3323 310.138 19.9239C310.304 13.1317 313.368 7.83027 318.828 3.85944C319.316 3.50462 319.758 3.0868 320.464 2.49503H304.462C304.022 11.085 304.752 19.5044 304.061 27.8673Z" fill="black"/>
<path d="M268.597 34.9294C262.958 39.8446 256.53 41.7904 249.173 39.929C245.414 38.929 242.026 36.8604 239.42 33.9738C236.813 31.0873 235.1 27.5067 234.487 23.666C233.335 14.7219 237.01 7.08777 244.543 2.77927C247.981 0.867221 251.903 0.00414765 255.825 0.296695C259.748 0.589242 263.499 2.02459 266.614 4.42538C267.268 4.93401 267.93 5.43308 268.588 5.93654C273.485 11.3132 275.559 17.5031 274.105 24.7571C273.309 28.7287 271.144 31.9237 268.597 34.9294ZM246.097 4.41439C239.551 7.74308 236.252 13.2404 236.253 20.422C236.255 27.6014 239.559 33.1007 246.081 36.4566C253.338 40.6339 262.843 38.6483 268.523 31.7686C273.978 25.1617 273.925 15.0949 268.282 8.81464C265.092 5.26477 261.4 2.97408 256.253 2.70344C252.588 2.51067 249.299 2.71205 246.097 4.41439Z" fill="black"/>
<path d="M342.586 20.4758C342.608 22.1201 342.299 23.752 341.676 25.274C341.054 26.796 340.131 28.1769 338.962 29.3341C337.794 30.4914 336.404 31.4013 334.877 32.0094C333.349 32.6175 331.714 32.9114 330.07 32.8736C327.6 32.8662 325.188 32.126 323.139 30.7467C321.09 29.3674 319.496 27.411 318.559 25.1253C317.623 22.8397 317.386 20.3275 317.878 17.907C318.371 15.4865 319.57 13.2666 321.325 11.5283C323.08 9.79004 325.311 8.61165 327.736 8.14236C330.161 7.67308 332.671 7.93401 334.948 8.89212C337.224 9.85022 339.166 11.4624 340.525 13.5245C341.885 15.5866 342.602 18.0058 342.586 20.4758ZM340.593 20.5231C340.616 18.4585 340.027 16.4335 338.899 14.7039C337.771 12.9743 336.156 11.6179 334.258 10.806C332.36 9.9941 330.263 9.76321 328.234 10.1425C326.204 10.5218 324.333 11.4943 322.856 12.937C321.379 14.3797 320.362 16.2279 319.936 18.248C319.509 20.2681 319.69 22.3694 320.457 24.2863C321.224 26.2032 322.543 27.8497 324.245 29.0176C325.948 30.1855 327.958 30.8225 330.023 30.848C331.395 30.8649 332.757 30.6111 334.031 30.1013C335.305 29.5914 336.467 28.8354 337.448 27.8765C338.43 26.9176 339.213 25.7746 339.753 24.5128C340.292 23.2511 340.578 21.8953 340.593 20.5231Z" fill="black"/>
<path d="M41.5712 24.4196C42.0907 22.7077 42.5716 20.9829 43.1369 19.2863C44.9765 13.7657 46.7961 8.237 48.771 2.76475C49.0128 2.09467 50.0898 1.55789 50.8892 1.30341C51.782 1.13615 52.693 1.08711 53.5986 1.15756H81.9087V9.04648H57.198V16.424C61.9617 16.424 66.5975 16.4211 71.2333 16.425C74.4829 16.4278 74.4834 16.432 74.4867 19.6941C74.4881 21.0981 74.4869 22.5021 74.4869 24.2083H57.2569V31.7501H81.899V39.8937H42.591L36.981 39.6297C38.546 34.4441 40.0586 29.4318 41.5712 24.4196Z" fill="#CC0000"/>
<path d="M29.0694 39.5928H12.2614C15.0091 31.0325 17.6902 22.6798 20.3712 14.3272L20.9709 14.3717C23.6403 22.6853 26.3098 30.9988 29.0694 39.5928Z" fill="#CC0000"/>
<path d="M16.7069 1.45393L8.629 26.5177L8.07693 26.5175C5.41422 18.255 2.75157 9.9924 0 1.45393H16.7069Z" fill="#CC0000"/>
<path d="M40.6013 1.1525C40.4808 2.36344 40.4259 3.58567 40.2199 4.78191C40.0404 5.82484 39.6905 6.83846 39.4159 7.86507C37.3417 14.0553 35.2675 20.2456 33.1933 26.4358L32.6691 26.4463L24.5284 1.1525H40.6013Z" fill="#CC0000"/>
<path d="M220.115 0.686359L222.557 1.52927C231.468 6.97545 234.407 15.5679 229.988 23.7213C228.733 25.6892 227.34 27.5658 225.82 29.3372C227.471 32.0255 229.264 34.8955 231.006 37.7953C232.326 39.9915 232.012 40.544 229.495 40.6311C229.329 40.6215 229.163 40.6236 228.997 40.6373C223.402 41.647 219.426 39.8266 217.35 34.2719C216.157 31.0808 213.329 32.5547 211.094 32.418H207.016C207.016 34.4569 206.978 36.4254 207.028 38.3917C207.067 39.957 206.438 40.6704 204.815 40.6381C195.441 40.4517 197.3 42.0414 197.133 33.4167C197.018 27.4259 197.044 21.4322 197.007 15.4398C197.064 11.4481 197.274 7.4504 197.12 3.46683C197.028 1.09749 197.765 0.0248894 200.144 0.201759L207.569 0.111919L212.624 0.120549L220.115 0.686359ZM202.598 2.40971H199.33C199.33 5.54863 199.33 8.48352 199.33 11.4184C199.283 19.8201 199.276 28.2224 199.166 36.6233C199.132 39.2491 200.979 38.4056 202.296 38.5091C203.746 38.6233 205.002 38.7002 205.027 36.4546C205.098 30.1983 205.232 30.5901 211.517 30.081C216.203 29.7015 218.625 31.5656 220.566 35.4544C222.273 38.8763 224.696 39.4372 228.689 37.9241C227.29 35.6367 226.014 33.3131 224.504 31.152C223.238 29.3392 223.178 28.2128 225.129 26.6606C227.333 24.8467 228.899 22.3761 229.6 19.6091C230.301 16.8421 230.1 13.9235 229.026 11.279C228.03 8.6595 226.259 6.40642 223.948 4.82117C221.637 3.23592 218.897 2.3941 216.095 2.40833L202.598 2.40971Z" fill="black"/>
<path d="M87.5956 1.151L110.096 1.22664C113.505 2.20236 116.37 3.95558 118.091 7.15864C119.138 8.92855 119.668 10.9571 119.618 13.0131C119.569 15.0691 118.943 17.0699 117.812 18.7875C117.439 19.2162 117.229 19.7631 117.22 20.3315C117.212 20.8999 117.404 21.453 117.764 21.8929C119.647 24.6499 119.889 27.7822 119.347 31.0076C116.74 37.4476 113.269 39.7461 106.212 39.7705C100.339 39.7909 94.466 39.8547 88.5931 39.8992C87.3109 39.8401 86.7145 39.2886 86.7195 37.8867C86.7609 26.2647 86.7295 14.6423 86.7789 3.02033C86.7816 2.3961 87.3113 1.77408 87.5956 1.151ZM94.6949 31.7791C99.5007 31.7791 104.051 31.906 108.588 31.7163C109.01 31.6972 109.424 31.5952 109.806 31.4161C110.188 31.2369 110.532 30.9842 110.816 30.6723C111.101 30.3604 111.321 29.9954 111.465 29.5983C111.608 29.2012 111.672 28.7797 111.652 28.3579C111.746 26.3668 110.823 24.6611 108.851 24.5614C104.174 24.3249 99.4781 24.4854 94.6949 24.4854V31.7791ZM94.5949 9.20845C94.5949 11.3273 94.4839 13.1555 94.6633 14.9547C94.762 15.2904 94.9444 15.5955 95.1935 15.8412C95.4426 16.087 95.75 16.2654 96.087 16.3596C100.148 16.472 104.216 16.4995 108.277 16.3779C108.719 16.3918 109.16 16.3158 109.571 16.1544C109.983 15.993 110.358 15.7496 110.673 15.4391C110.988 15.1285 111.237 14.7572 111.404 14.3476C111.571 13.9381 111.654 13.4988 111.646 13.0565C111.766 10.96 110.729 9.34277 108.57 9.26075C104.036 9.08849 99.4911 9.20845 94.5949 9.20845Z" fill="#CC0000"/>
<path d="M153.281 36.777L149.081 38.8512C143.747 40.0446 138.573 40.1053 133.557 37.3737C129.134 34.9258 125.84 30.8481 124.378 26.0085C122.916 21.169 123.4 15.9498 125.728 11.4619C128.07 7.02972 132.054 3.68991 136.827 2.15667C141.6 0.623426 146.783 1.01845 151.269 3.25726C152.377 3.8251 153.455 4.453 154.547 5.053L156.08 6.815L154.594 8.92052C153.37 10.0276 152.146 11.1348 150.947 12.2203C144.203 7.98109 138.453 8.20207 134.396 12.7904C132.551 14.8084 131.497 17.4237 131.425 20.1565C131.353 22.8893 132.269 25.5563 134.005 27.6683C138.125 32.5766 143.778 32.9424 150.935 28.6741C152.132 29.7265 153.367 30.8126 154.601 31.8986L156.271 34.0144L153.281 36.777Z" fill="black"/>
<path d="M194.48 14.8885C194.444 22.1878 194.408 29.4871 194.372 36.7865C194.353 40.5765 194.355 40.5699 190.572 40.6359C189.913 40.6475 189.255 40.7416 188.597 40.7975C184.623 40.3734 184.642 40.3732 184.616 36.3097C184.593 32.8385 184.517 29.3677 184.465 25.8968L184.113 25.5296L174.103 25.4507H169.491V29.895C169.507 33.0701 169.522 36.2452 169.538 39.4202C167.904 39.884 166.271 40.3478 164.638 40.8116L164.05 40.8152C159.673 40.271 159.679 40.2709 159.61 35.6161C159.599 34.885 159.505 34.1551 159.449 33.4247L159.481 31.9385L159.481 30.4025C159.476 29.9069 159.471 29.4112 159.466 28.9155C159.517 20.4415 159.658 11.9666 159.564 3.49426C159.536 1.01734 160.17 0.16945 162.756 0.22977C169.372 0.38402 169.374 0.26223 169.375 7.00885C169.375 9.25307 169.255 11.5093 169.465 13.734C169.576 14.1351 169.787 14.5013 170.079 14.7984C170.371 15.0954 170.733 15.3135 171.132 15.4323C174.614 15.5621 178.106 15.4428 181.595 15.4079C184.047 16.057 184.93 15.0179 184.647 12.629C184.541 11.7355 184.575 10.8255 184.545 9.92295L184.531 8.90195C184.562 6.73803 184.641 4.57337 184.608 2.41044C184.586 0.98272 185.031 0.2147 186.605 0.28256C189.097 0.39 191.593 0.39923 194.088 0.45C194.219 5.26285 194.35 10.0757 194.48 14.8885ZM186.667 37.9164L187.098 38.416L191.594 38.4008C191.842 38.0268 192.309 37.6522 192.308 37.2789C192.284 28.6527 192.21 20.0267 192.145 11.4007L192.113 8.91791C192.113 7.58552 192.113 6.25314 192.113 4.92076L192.121 2.92L191.598 2.40612H186.669V13.4057C186.217 14.9844 187.571 17.4377 184.554 17.7746C179.658 17.7222 174.761 17.5994 169.867 17.6519C167.901 17.673 167.195 16.9303 167.257 15.0199C167.348 12.2824 167.278 9.53967 167.278 6.79915C167.277 1.86924 167.277 1.86788 162.307 2.37931C162.084 2.45075 161.87 2.54823 161.67 2.66974V38.536C162.945 38.6548 164.23 38.6291 165.5 38.4597C166.197 38.288 167.204 37.3798 167.222 36.7768C167.331 33.1564 167.195 29.5286 167.14 25.9033L167.117 24.9181C167.181 24.8794 168.924 23.4204 169.755 23.3916C174.292 23.234 178.844 23.4627 183.378 23.261C185.879 23.1497 186.902 23.9877 186.66 26.4315C186.662 30.2598 186.665 34.0881 186.667 37.9164Z" fill="black"/>
<path d="M246.289 30.0302C240.166 24.114 240.819 15.8982 246.311 10.8282C248.772 8.87782 251.862 7.89725 254.997 8.07219C258.131 8.24713 261.093 9.56543 263.321 11.7775C265.379 13.9225 266.604 16.7315 266.776 19.6991C266.948 22.6667 266.055 25.5982 264.259 27.9665C262.392 30.4536 259.655 32.1446 256.596 32.7013C253.536 33.2581 250.379 32.6396 247.756 30.9695C247.263 30.6624 246.778 30.3436 246.289 30.0302ZM244.027 20.2545C243.98 23.0037 245.028 25.6589 246.939 27.6358C248.85 29.6127 251.468 30.7495 254.217 30.7961C256.967 30.8426 259.622 29.7952 261.599 27.8841C263.575 25.9731 264.712 23.355 264.759 20.6058C264.787 19.2413 264.546 17.8845 264.049 16.6135C263.551 15.3424 262.808 14.182 261.862 13.1989C260.915 12.2158 259.783 11.4293 258.532 10.8845C257.281 10.3397 255.934 10.0473 254.569 10.0242C253.205 10.0011 251.849 10.2476 250.58 10.7497C249.311 11.2518 248.153 11.9996 247.174 12.9501C246.194 13.9006 245.412 15.0351 244.872 16.2886C244.332 17.5421 244.045 18.8898 244.027 20.2545Z" fill="black"/>
<path d="M209.09 7.84848L214.598 7.89582C216.002 7.99456 217.396 8.21118 218.765 8.54339C220.543 9.18444 222.044 10.4221 223.012 12.0457C223.981 13.6693 224.356 15.5783 224.075 17.4476C223.851 19.2389 223.023 20.9003 221.727 22.1578C220.432 23.4154 218.747 24.1941 216.95 24.3655C213.554 24.5911 210.133 24.4228 206.724 24.4772C205.211 24.5013 204.97 23.6322 204.966 22.3901C204.953 18.5658 204.887 14.7416 204.841 10.9174C204.33 7.22625 207.205 8.22307 209.09 7.84848ZM207.123 13.4244V22.5261C209.398 22.5261 211.375 22.5457 213.352 22.5186C214.513 22.5327 215.674 22.4725 216.827 22.3386C218.241 22.1668 219.548 21.4968 220.512 20.4487C221.477 19.4006 222.036 18.0431 222.09 16.6198C222.247 15.1555 221.841 13.6863 220.954 12.5107C220.067 11.3351 218.766 10.5414 217.314 10.291C215.259 10.0777 213.192 10.0114 211.127 10.0927H207.123V13.4244Z" fill="black"/>
</g>
<defs>
<clipPath id="clip0_1_2">
<rect width="342.586" height="40.9026" fill="white"/>
</clipPath>
</defs>
</svg>
