<svg xmlns="http://www.w3.org/2000/svg" viewBox="0 0 119.62009 65.75823"><defs><style>.cls-1{fill:#cf1344;}</style></defs><g id="Layer_2" data-name="Layer 2"><g id="Layer_1-2" data-name="Layer 1"><path d="M41.5712,23.277c.51954-1.71189,1.00039-3.43668,1.56573-5.1333,1.83956-5.5206,3.65918-11.04924,5.63408-16.52152C49.01283.95206,50.08979.41529,50.88925.1608A10.3529,10.3529,0,0,1,53.59856.015l28.31018,0V7.90387H57.198v7.37756c4.76368,0,9.39949-.00294,14.03529.001,3.24956.00276,3.25007.007,3.25336,3.26914.00142,1.404.00024,2.80793.00024,4.51411H57.25691v7.54184H81.899v8.14359h-39.308l-5.61-.26393C38.546,33.30149,40.05858,28.28923,41.5712,23.277Z"/><path d="M29.06937,38.45014H12.26142c2.7477-8.56026,5.42876-16.91291,8.10981-25.26556l.59963.04453C23.64035,21.54267,26.30985,29.85623,29.06937,38.45014Z"/><path d="M16.70687.31132,8.629,25.37512l-.55207-.00019C5.41422,17.11236,2.75157,8.8498,0,.31132Z"/><path d="M40.60134.00989c-.12053,1.21094-.17546,2.43317-.3814,3.62941-.17954,1.04293-.52938,2.05655-.804,3.08316q-3.11134,9.28539-6.22263,18.5707l-.52415.01057L24.52836.00989Z"/><path d="M87.59564.0084,110.09586.084c3.4087.97572,6.27389,2.729,7.9951,5.932a10.97846,10.97846,0,0,1-.279,11.62887,2.40712,2.40712,0,0,0-.04761,3.10541c1.88284,2.75695,2.12474,5.88925,1.58222,9.11468-2.60677,6.44-6.078,8.73851-13.13488,8.76293-5.87294.02033-11.74573.08412-17.61863.12867-1.28214-.05908-1.87856-.61055-1.87356-2.01248.04139-11.62206.01-23.24439.05936-34.86638C86.78156,1.25349,87.31127.63147,87.59564.0084Zm7.09929,30.62809c4.80575,0,9.356.12694,13.89292-.06285a3.21274,3.21274,0,0,0,3.06436-3.35834c.09346-1.99115-.82894-3.69676-2.8016-3.79652-4.67619-.23652-9.37247-.07605-14.15568-.07605ZM94.59487,8.06584c0,2.11882-.111,3.947.06839,5.74625A2.06332,2.06332,0,0,0,96.087,15.217c4.06107.11236,8.12926.13987,12.19.01832a3.26682,3.26682,0,0,0,3.36893-3.32143c.12016-2.09653-.91689-3.71374-3.0756-3.79576C104.03626,7.94588,99.49108,8.06584,94.59487,8.06584Z"/><path class="cls-1" d="M86.05127,53.93357c0,3.3592-.0573,6.71987.02906,10.07685.03311,1.2871-.37948,1.64466-1.63417,1.62406-3.44243-.0565-3.44331-.00508-3.44327-3.44125.00007-5.47681.02107-10.95378-.01871-16.4303-.00728-.99974.27765-1.249,1.30643-1.4049,3.1399-.4758,5.079.63566,6.48684,3.53695,1.403,2.89143,3.33657,5.52547,5.22651,8.57757.07394-.67108.1381-.98624.13885-1.30155.00765-3.15462.0331-6.30968-.01234-9.46366-.01346-.93515.2146-1.3287,1.23773-1.317,4.20565.04813,8.41226.00735,12.61816.04209a3.65656,3.65656,0,0,1,1.18754.46962,3.50223,3.50223,0,0,1-1.10812.57975,9.51227,9.51227,0,0,0-8.865,9.67c-.02275,3.023-.05042,6.04743.01908,9.069.02593,1.12772-.42391,1.27991-1.43747,1.43234-3.028.45537-4.92787-.57633-6.30726-3.40282C90.0436,59.317,88.08652,56.64009,86.35925,53.851Zm8.93011,4.97075-.41606.11485a11.67846,11.67846,0,0,1-.91354-1.1359c-2.38247-3.82688-4.73661-7.6715-7.13669-11.48724a1.92945,1.92945,0,0,0-1.124-.89944,28.86421,28.86421,0,0,0-3.32446-.04263c-.03376.52381-.08.90966-.08031,1.29554-.00468,5.47211.03742,10.94475-.03312,16.416-.01657,1.28652.55024,1.36063,1.56966,1.3917,1.13842.0347,1.512-.28882,1.48677-1.46967-.07659-3.58807-.04262-7.179-.00639-10.76831a4.00581,4.00581,0,0,1,.45151-1.23363,4.43676,4.43676,0,0,1,.90641.81525c2.16376,3.44728,4.4196,6.84576,6.38921,10.40215a3.73409,3.73409,0,0,0,4.14278,2.26487c.9619-.10543,1.27059-.33555,1.2553-1.30535-.04488-2.84423-.04144-5.69106.02818-8.53479A10.33783,10.33783,0,0,1,102.7459,46.281c.25655-.18657.489-.40626.86007-.71741H95.19218C94.96108,50.0802,95.34453,54.50713,94.98138,58.90432Z"/><path class="cls-1" d="M115.23781,55.01788a6.43339,6.43339,0,0,1-6.581,6.51871,6.56158,6.56158,0,1,1,6.581-6.51871Zm-1.04785.02486a5.4904,5.4904,0,1,0-5.55785,5.4288A5.49063,5.49063,0,0,0,114.19,55.04274Z"/><path class="cls-1" d="M15.70172,63.589l-2.20859,1.09065a11.21213,11.21213,0,0,1-8.16231-.77686A10.20269,10.20269,0,0,1,1.21405,50.2784a10.092,10.092,0,0,1,13.42944-4.314c.58284.29857,1.1495.62872,1.72365.94421l.806.92648-.78141,1.10708-1.91754,1.735c-3.54569-2.229-6.56906-2.11277-8.70262.29976a5.97373,5.97373,0,0,0-.20529,7.82275c2.166,2.58083,5.13883,2.77314,8.9017.52886L16.39576,61.024l.87765,1.11243Z"/><path class="cls-1" d="M37.364,52.08006q-.02868,5.757-.05719,11.51394c-.00959,1.99281-.00874,1.98932-1.99787,2.024-.34649.00605-.69222.05553-1.03831.085-2.08983-.223-2.07939-.22307-2.09353-2.35969-.01208-1.82513-.05181-3.65007-.0793-5.47509l-.1848-.19306-5.26349-.0415H24.22486v2.33679q.01217,2.50416.02434,5.00835l-2.57626.73157-.3091.0019c-2.30142-.28615-2.29823-.2862-2.33448-2.73366-.0057-.38441-.05534-.76817-.08466-1.15223l.01655-.78145.00036-.80761-.008-.78184c.02688-4.45559.10093-8.91171.05131-13.36645-.0145-1.30236.31881-1.74818,1.67878-1.71647,3.47826.08111,3.47931.01707,3.48,3.56443.00023,1.18-.06328,2.36631.04721,3.536a1.29209,1.29209,0,0,0,.87654.893c1.83106.06826,3.667.00555,5.50128-.01282,1.28937.34131,1.75392-.205,1.605-1.46111-.05571-.4698-.038-.94831-.05379-1.42285l-.00732-.53685c.01653-1.13779.05823-2.276.04073-3.41323-.01155-.75069.22225-1.15451,1.0497-1.11884,1.31045.05651,2.62313.06135,3.93488.08806Q37.261,48.28422,37.364,52.08006Zm-4.1083,12.108.2266.26269,2.364-.008c.13067-.19664.37576-.39359.37523-.58987-.01228-4.53563-.05124-9.07118-.08525-13.60674l-.017-1.30542-.00006-2.10169.00413-1.052-.275-.2702H33.25679v5.78358c-.23775.83007.4744,2.12-1.11206,2.29713-2.57421-.02755-5.14883-.0921-7.72246-.06448-1.03335.01109-1.40505-.37942-1.372-1.38391.04739-1.43938.01094-2.88151.01069-4.32247-.00043-2.59214-.00038-2.59286-2.6135-2.32395a1.56833,1.56833,0,0,0-.33519.15271V64.51392a8.954,8.954,0,0,0,2.01408-.04016c.36636-.09028.8958-.56779.90538-.88485.05747-1.90359-.01453-3.81109-.04314-5.71728l-.012-.518c.03358-.02038.94994-.78751,1.38662-.80267,2.38578-.08283,4.77935.03739,7.1633-.06868,1.31492-.0585,1.85271.38211,1.72548,1.66709Q33.2539,61.16874,33.25574,64.18809Z"/><path class="cls-1" d="M76.33461,62.61754a10.77508,10.77508,0,0,1-10.21342,2.62881A10.60751,10.60751,0,1,1,75.2919,46.57856c.34387.26744.69163.52985,1.03757.79456a10.83184,10.83184,0,0,1,2.90128,9.8958A11.92806,11.92806,0,0,1,76.33461,62.61754ZM64.504,46.57281a8.89765,8.89765,0,0,0-5.17572,8.41675,8.94765,8.94765,0,0,0,5.1672,8.431A9.50154,9.50154,0,0,0,76.16861,48.88645a8.7482,8.7482,0,0,0-6.32439-3.21325A9.74579,9.74579,0,0,0,64.504,46.57281Z"/><path class="cls-1" d="M64.605,60.04157a6.57311,6.57311,0,1,1,8.95553-9.59725,6.56454,6.56454,0,0,1,.49286,8.51215,6.4909,6.4909,0,0,1-8.67715,1.579C65.11717,60.374,64.862,60.20635,64.605,60.04157Zm-1.18936-5.14a5.45114,5.45114,0,0,0,10.90071.18469,5.45118,5.45118,0,1,0-10.90071-.18469Z"/><path class="cls-1" d="M50.8426,44.61262l1.28409.4432c4.68553,2.86359,6.23076,7.38149,3.90712,11.66855a26.03512,26.03512,0,0,1-2.19149,2.95282c.86833,1.4135,1.81073,2.92252,2.727,4.44724.69392,1.15475.52868,1.44528-.79446,1.49108a1.86092,1.86092,0,0,0-.262.00325c-2.94171.5309-5.03263-.42629-6.12413-3.34694-.627-1.67787-2.11381-.90288-3.28905-.97475H43.95514c0,1.07206-.0196,2.10708.00621,3.141.02055.823-.30977,1.1981-1.16358,1.18113-4.92836-.098-3.95136.73787-4.03869-3.797-.06064-3.15-.04685-6.30142-.06632-9.45223.02979-2.09885.14017-4.20082.059-6.29537-.04826-1.24579.33916-1.80976,1.59034-1.71676l3.90379-.04724,2.65808.00454Zm-9.21006.90613H39.91411c0,1.65044,0,3.1936,0,4.73676-.02465,4.41761-.02846,8.8355-.08625,13.25268-.01807,1.38067.9534.93713,1.64549.99158.76276.06,1.4227.10048,1.43614-1.08029.03744-3.28954.10778-3.08355,3.41234-3.35122,2.46366-.19955,3.73727.78058,4.75776,2.82534.89794,1.79922,2.17151,2.09412,4.2711,1.29855-.73527-1.20269-1.40657-2.42444-2.20018-3.56078-.66565-.95314-.69724-1.54542.32827-2.36154a7.04165,7.04165,0,0,0,2.04911-8.08765A7.23381,7.23381,0,0,0,48.7291,45.518Z"/><path class="cls-1" d="M45.04571,48.37845l2.896.02489a13.21384,13.21384,0,0,1,2.19094.34049,4.29726,4.29726,0,0,1,2.7922,4.68183,4.17518,4.17518,0,0,1-3.74632,3.63741c-1.78561.1186-3.5843.03013-5.37683.05871-.79555.01269-.92236-.4443-.92453-1.09739-.00668-2.01081-.04163-4.02153-.06562-6.03228C42.543,48.05128,44.05475,48.5754,45.04571,48.37845Zm-1.03439,2.93181V56.0959c1.19615,0,2.23591.0103,3.27532-.00392A14.33689,14.33689,0,0,0,49.114,55.9973a3.14911,3.14911,0,0,0,2.76711-3.0069,3.04642,3.04642,0,0,0-2.511-3.32766,22.81087,22.81087,0,0,0-3.25321-.10429H44.01132Z"/></g></g></svg>